<?xml version="1.0" encoding="utf-8"?>
<!-- Generator: Adobe Illustrator 23.0.1, SVG Export Plug-In . SVG Version: 6.00 Build 0)  -->
<svg version="1.1" id="Layer_1" xmlns="http://www.w3.org/2000/svg" xmlns:xlink="http://www.w3.org/1999/xlink" x="0px" y="0px"
	 width="300px" height="242.8px" viewBox="0 0 300 242.8" enable-background="new 0 0 300 242.8" xml:space="preserve">
<title>cover</title>
<path fill="#00A759" d="M145.1,6v38.2c-66.2-2.6-87.6,73.7-87.6,73.7L2,119.2C2,119.2,20.9-13.7,145.1,6z"/>
<path fill="#F21C2E" d="M154.6,4.8v38.1c66.3-2.7,87.6,73.8,87.6,73.8l55.6,1.3C297.9,118,278.9-15,154.6,4.8z"/>
<path fill="#3D4E9A" d="M146.3,239.6v-38.1c-66.3,2.6-87.6-73.9-87.6-73.9L3,126.4C3,126.5,22,259.4,146.3,239.6z"/>
<path fill="#FBED4F" d="M153.4,238.3v-38.2c66.3,2.6,87.6-73.8,87.6-73.8l55.6-1.3C296.7,125.1,277.7,258,153.4,238.3z"/>
<path fill="#AE662D" d="M217.7-8.7c-1.2,0-4.9-0.9-6.4-1c1.4,0.1,5,1.4,6.4,1.4c1.5,0.2,3,0.2,4.5,0C220.7-8.3,219.3-8.4,217.7-8.7z
	"/>
<path fill="#AE662D" d="M229-14.7c-3.1-0.4-6.3-0.5-9.4-0.2C222.7-15,225.9-14.9,229-14.7c1.2,0.4,2.5,0.4,3.8,0
	C231.5-14.3,230.2-14.4,229-14.7z"/>
<path fill="#231F20" d="M82.6,113.4c0.6,1.2,1.1,2.6,1.5,3.9c0.5,1.8,1.5,2.1,3.3,2.1h0.3v2.6h-0.3c-0.9,0.1-2-0.3-2.7-0.9l0,0
	c0,1.7-0.4,3.3-1.2,4.7c-1.6,2-3.8,3.2-6.2,3.3c-3,0.2-5.5-2.4-5.6-5.7c0-0.2,0-0.4,0-0.6c0-2.1,0.5-4.3,1.6-6l0.7,0.5
	c-0.6,1.1-0.9,2.5-1,3.9c-0.1,1.3,0.3,2.6,1.2,3.5c0.9,0.9,2.2,1.4,3.5,1.4c1.6-0.1,3.2-0.7,4.4-1.7c0.8-0.7,1.4-1.3,1.4-2.1
	c0-1.1-0.3-2.3-0.7-3.4c-0.4-1.2-0.9-2.4-1.5-3.5c0.3-0.8,0.8-1.5,1.3-2.2L82.6,113.4z M78.3,107.2c0.9,0.7,1.6,1.4,2.3,2.3
	c-0.4,0.8-0.9,1.4-1.5,2c-0.8-0.8-1.5-1.4-2.2-2.1C77.3,108.5,77.9,107.8,78.3,107.2z"/>
<path fill="#231F20" d="M88.3,119.4c2,0,2.6-1,3.1-3c0.8-2.6,2.2-3.9,3.4-3.9c0.9,0,1.7,0.5,2.2,1.3c0.7,1.2,1.3,2.6,1.8,3.9
	c0.6,1.1,1.7,1.8,2.9,1.7h0.4v2.6h-0.3c-1.1,0-2.1-0.7-2.7-1.8l0,0c-0.1,0.6-0.3,1.1-0.6,1.5c-0.3,0.4-0.8,0.7-1.2,0.7
	c-2-0.3-3.8-1.3-5.2-3l0,0c-0.7,1.6-2.1,2.6-3.7,2.5h-0.3c-0.7,0.1-1.2-0.5-1.3-1.2c0-0.1,0-0.1,0-0.2c0-0.8,0.5-1.3,1.2-1.2h0.1
	L88.3,119.4z M94.4,119c0.8,0.5,1.6,0.9,2.6,0.9c0.3,0,0.7,0,0.7-0.5c-0.1-0.9-0.4-1.9-0.9-2.7c-0.5-1-1.4-1.7-2.4-1.8
	c-1,0-1.9,0.8-2.1,1.8C92.5,117.5,93.6,118.4,94.4,119z"/>
<path fill="#231F20" d="M109.3,119.4v2.6h-7.3c-0.7,0.1-1.2-0.5-1.3-1.2c0-0.1,0-0.1,0-0.2c0-0.7,0.5-1.2,1.1-1.2c0.1,0,0.1,0,0.2,0
	H109.3z"/>
<path fill="#231F20" d="M109.6,119.4c1.2,0.1,2.5-0.1,3.7-0.4c0.7-0.3,1-0.6,1-0.9c-0.3-1.8-1-3.5-1.8-5.1c0.4-0.9,0.9-1.6,1.4-2.3
	l0,0c1,1.9,1.7,4,1.9,6.2c0,1.4-0.5,2.7-1.3,3.9c-0.9,0.9-2.1,1.2-4.9,1.2h-0.3c-0.7,0.1-1.2-0.5-1.3-1.2c0-0.1,0-0.1,0-0.2
	c0-0.8,0.5-1.3,1.2-1.2h0.1L109.6,119.4L109.6,119.4z M111.4,130.1c-0.8-0.8-1.4-1.4-2.1-2.1c0.4-0.7,0.9-1.3,1.5-2
	c0.8,0.7,1.5,1.4,2,2.2C112.4,129,112,129.6,111.4,130.1z M115,129.9c-0.8-0.8-1.4-1.4-2.1-2.1c0.4-0.7,0.9-1.3,1.5-2
	c0.8,0.7,1.5,1.4,2.1,2.2C116,128.7,115.5,129.4,115,129.9z"/>
<path fill="#231F20" d="M124,122h-0.2c-1.1,0.1-2.3-0.3-3.2-1.1c-1.1-1.3-1.2-2.7-1.2-5.8c0-3.9-0.2-7.9-0.5-12.3
	c0.5-0.7,1.1-1.3,1.7-1.9l0,0c0.3,4.4,0.3,9.8,0.3,14.8v1.1c-0.1,1,0.5,1.9,1.4,2.2c0.3,0.1,0.8,0.2,1.2,0.2h0.3L124,122z"/>
<path fill="#231F20" d="M131.4,119.4v2.6H124c-0.7,0.1-1.2-0.5-1.3-1.2c0-0.1,0-0.1,0-0.2c0-0.8,0.5-1.3,1.2-1.2h0.1H131.4z"/>
<path fill="#231F20" d="M150.2,122h-0.4c-2.2,0-3.3-0.8-3.8-2h-0.2c-0.7,1.1-1.9,1.9-3.2,2c-0.9,0.1-1.9-0.7-2-1.7l0,0
	c-0.8,1-2,1.7-3.2,1.7c-0.9,0.1-1.7-0.7-1.8-1.6c0-0.1,0-0.1,0-0.2l0,0c-1,1.2-2.6,1.9-4.1,1.8h-0.3c-0.7,0.1-1.2-0.5-1.3-1.2
	c0-0.1,0-0.1,0-0.2c0-0.7,0.5-1.2,1.1-1.2c0.1,0,0.1,0,0.2,0h0.7c1.5,0.1,3-0.6,3.8-1.9l0.9-1.6l1.5-0.6l0,0c-0.6,0.9-0.9,2-1.2,3.1
	c0,0.6,0.4,1,0.9,1h0.1c0.6,0,1.1-0.2,1.6-0.6c0.5-0.5,0.9-1.1,1.2-1.8l0.4-1.2l1.4-0.8l0,0c-0.4,0.9-0.7,2-0.8,3
	c0,0.7,0.4,1.1,0.9,1.2c0,0,0,0,0.1,0c0.4,0,0.9-0.2,1.3-0.5c0.6-0.5,0.9-1.2,1.1-2c0-0.3,0.2-0.8,0.3-1.6l1.4-1l0,0
	c-0.3,0.9-0.4,1.8-0.4,2.7c0,1.6,1.3,2.2,3,2.2h0.4L150.2,122z"/>
<path fill="#231F20" d="M157.6,119.4v2.6h-7.3c-0.7,0.1-1.2-0.5-1.3-1.2c0-0.1,0-0.1,0-0.2c0-0.7,0.5-1.2,1.1-1.2c0.1,0,0.1,0,0.2,0
	H157.6z"/>
<path fill="#231F20" d="M164.9,119.4v2.6h-7.3c-0.7,0.1-1.2-0.5-1.3-1.2c0-0.1,0-0.1,0-0.2c0-0.8,0.5-1.3,1.2-1.2h0.1H164.9z"/>
<path fill="#231F20" d="M165.3,119.4c0.7,0,1.5-0.2,2-0.6c0.7-0.5,1-1.3,0.9-2.2c0-3.3-0.3-6.9-0.5-10.6c0-0.9-0.2-1.8-0.2-2.6
	c0-0.6,0.3-1,0.6-1.4c0.3-0.4,0.7-0.8,1-1.1l0,0c0.1,1.7,0.6,3.3,1.5,4.6c-0.3,0.4-0.8,0.8-1.2,1c0,2.4,0.3,4.8,0.3,7.1
	c0.1,1.8-0.2,3.5-0.8,5.1c-0.3,1-0.9,1.8-1.7,2.4c-0.7,0.4-1.5,0.7-2.3,0.7h-0.3c-0.7,0.1-1.3-0.5-1.3-1.2v-0.1
	c0-0.8,0.5-1.3,1.2-1.2h0.1L165.3,119.4z"/>
<path fill="#231F20" d="M174,122.4c0.2-1.3,0.3-2.7,0.3-4.1v-2c0-3.8-0.3-9.2-0.7-12.8c0.5-0.8,1.2-1.5,1.8-2.2h0.2
	c0.3,4.4,0.5,9.6,0.5,14.4c0,1.2,0,2.5,0,3.4c-0.2,1.3-0.8,2.5-1.6,3.3L174,122.4z"/>
<path fill="#231F20" d="M190.2,120.1c-2,0-3.3-0.8-3.3-2.4c0.1-0.9,0.3-1.6,0.6-2.4c1.4-2.5,3.4-4.4,5.9-5.7v-1.5
	c0.4-0.6,0.9-1.1,1.5-1.7h0.2c0,3.2,0,6.3,0,9.5c0,1.4,0.2,2.4,0.7,3c0.6,0.4,1.3,0.6,2,0.6h0.4v2.6h-0.4c-1.8,0.3-3.4-1-3.8-3
	C192.6,119.8,191.4,120,190.2,120.1z M193.6,111.9c-3.2,1.9-5,3.4-5,4.4c0,1,1.1,1.1,2.4,1.1c0.9,0,1.8-0.3,2.7-0.6L193.6,111.9z
	 M191.4,104.7c-0.8-0.9-1.5-1.5-2.1-2.2c0.4-0.7,0.9-1.3,1.5-2c0.8,0.7,1.5,1.4,2.1,2.2C192.4,103.4,191.9,104.1,191.4,104.7
	L191.4,104.7z M194.9,104.5c-0.8-0.9-1.5-1.5-2.1-2.1c0.4-0.7,0.9-1.3,1.5-2c0.8,0.7,1.5,1.4,2.1,2.2
	C196,103.2,195.5,103.9,194.9,104.5L194.9,104.5z"/>
<path fill="#231F20" d="M198.4,119.4c1.4,0,2.9-0.7,3.2-1.8l0.5-2.2l1.3-1l0,0c-0.2,0.8-0.3,1.6-0.4,2.4c-0.1,0.7,0.2,1.3,0.6,1.7
	c0.7,0.6,1.5,0.9,2.3,0.9h0.3v2.6h-0.4c-1.5,0.3-3.1-0.6-3.8-2.1l0,0c-0.8,1.4-2.2,2.2-3.7,2.1H198c-0.7,0.1-1.2-0.5-1.3-1.2
	c0-0.1,0-0.1,0-0.2c0-0.8,0.5-1.3,1.2-1.2h0.1L198.4,119.4z M201.8,125.9c0.8,0.7,1.5,1.4,2.2,2.2c-0.4,0.8-0.9,1.4-1.5,2
	c-0.8-0.8-1.5-1.4-2.2-2.1C200.8,127.2,201.3,126.6,201.8,125.9z"/>
<path fill="#231F20" d="M207,119.4c1.6,0.1,3.3-0.3,4.9-1l0,0c-0.9-0.9-1.9-1.7-2.7-2.6c-0.3-0.4-0.8-0.8-1.3-0.9h-0.7l0.8-2.4h0.6
	c1.6-0.5,3.2-0.7,4.9-0.7c1.9-0.1,3.7,0.3,5.4,1l-0.7,2.3l-3.2,3.1l0,0c1.3,0.8,2.7,1.1,4.2,1.1h0.8v2.6h-0.5
	c-2.2,0-4.4-0.9-6.1-2.4l0,0c-1.9,1.6-4.1,2.5-6.4,2.4h-0.6c-0.7,0.1-1.2-0.5-1.3-1.2c0-0.1,0-0.1,0-0.2c0-0.8,0.5-1.3,1.2-1.2h0.1
	H207z M213.7,117.4c1.2-0.9,2.3-1.9,3.3-3l0,0c-1.1-0.3-2.3-0.5-3.4-0.5s-2.3,0.1-3.4,0.4l0,0l1.1,1.1
	C212,116.2,212.8,116.8,213.7,117.4L213.7,117.4z"/>
<path fill="#231F20" d="M227.5,119.4v2.6h-7.3c-0.7,0.1-1.3-0.5-1.3-1.2v-0.1c0-0.8,0.5-1.3,1.2-1.2h0.1L227.5,119.4L227.5,119.4z"
	/>
<path fill="#231F20" d="M227.8,119.4c0.7,0,1.5-0.2,2-0.6c0.7-0.5,1-1.3,0.9-2.2c0-3.3-0.3-6.9-0.5-10.6c0-0.9-0.2-1.8-0.2-2.6
	c0-0.5,0.2-1,0.5-1.4c0.3-0.4,0.7-0.8,1-1.1l0,0c0.1,1.7,0.6,3.3,1.5,4.6c-0.3,0.4-0.8,0.8-1.2,1c0,2.4,0.3,4.8,0.3,7.1
	c0.1,1.8-0.2,3.5-0.8,5.1c-0.3,1-0.9,1.9-1.7,2.4c-0.7,0.4-1.5,0.7-2.3,0.7h-0.3c-0.7,0.1-1.2-0.5-1.3-1.2c0-0.1,0-0.1,0-0.2
	c0-0.8,0.5-1.3,1.2-1.2h0.1L227.8,119.4z"/>
</svg>
